<svg width="128" height="128" viewBox="0 0 128 128" fill="none" xmlns="http://www.w3.org/2000/svg">
<path d="M46.2187 65.2717C46.163 65.2717 46.1055 65.27 46.0497 65.2665L21.546 63.7373C20.6142 63.6798 19.7764 63.1469 19.3305 62.3265C18.8847 61.5062 18.8899 60.5152 19.3462 59.7001C19.4751 59.4702 22.5631 54.0256 28.443 49.2761C36.3904 42.8597 45.6283 40.7784 55.1605 43.2585C55.9512 43.4641 56.6079 44.0162 56.9475 44.7599C57.2871 45.5036 57.2732 46.3605 56.9109 47.092L48.6518 63.7617C48.192 64.6917 47.2445 65.2717 46.2187 65.2717Z" fill="#FE356F"/>
<path d="M65.9712 108.001C65.5236 108.001 65.0777 107.891 64.6719 107.67C63.8515 107.222 63.3186 106.388 63.2611 105.454L61.7319 80.9504C61.664 79.8583 62.2562 78.8325 63.2367 78.3483L79.9081 70.0892C80.6414 69.7269 81.4966 69.713 82.2403 70.0526C82.984 70.3923 83.5343 71.0489 83.7416 71.8396C86.2218 81.3701 84.1404 90.6098 77.7241 98.5571C72.9762 104.439 67.53 107.525 67.3001 107.654C66.8873 107.886 66.4292 108.001 65.9712 108.001Z" fill="#FE356F"/>
<path d="M103.644 40.9126L86.0876 23.3564C85.384 22.6528 84.3529 22.3915 83.3985 22.6719C71.6456 26.1483 61.9966 31.6016 54.7199 38.8766C53.2029 40.3953 51.7451 42.0395 50.3883 43.7655C46.4434 48.7816 43.1481 54.712 40.5948 61.3931C38.968 65.6515 37.6444 70.213 36.6586 74.9504C34.9378 83.2269 34.8455 89.1591 34.842 89.4081C34.8333 90.1397 35.1189 90.845 35.6379 91.3623C36.1465 91.8709 36.838 92.1583 37.559 92.1583H37.5921C37.8412 92.1548 43.7734 92.0625 52.0499 90.3434C56.7872 89.3576 61.3505 88.034 65.6089 86.4072C72.2883 83.8539 78.2204 80.5604 83.2348 76.6155C84.9625 75.2587 86.6067 73.8009 88.1254 72.2821C95.4022 65.0054 100.855 55.3564 104.33 43.6035C104.61 42.6491 104.347 41.6163 103.644 40.9126Z" fill="#E1F1FA"/>
<path d="M53.903 86.2522L40.7498 73.099C39.7779 72.1271 38.2348 72.0348 37.1549 72.883C36.3155 73.5414 35.516 74.2485 34.7793 74.9852C25.625 84.1361 25.3428 98.3169 25.3341 98.916C25.3254 99.6475 25.611 100.353 26.1301 100.87C26.6386 101.381 27.3301 101.666 28.0494 101.666C28.0616 101.666 28.072 101.666 28.0842 101.666C28.6834 101.659 42.8659 101.375 52.0168 92.2227C52.7535 91.486 53.4606 90.6883 54.119 89.8471C54.9672 88.7655 54.8731 87.2223 53.903 86.2522Z" fill="#FFF261"/>
<path d="M40.8038 60.8514L32.7328 68.9224C32.2242 69.431 31.9369 70.1207 31.9369 70.8418C31.9369 71.5611 32.2242 72.2525 32.7328 72.7611L54.2374 94.2657C54.746 94.7743 55.4357 95.0616 56.1568 95.0616C56.8778 95.0616 57.5675 94.776 58.0761 94.2657L66.1471 86.1947L40.8038 60.8514Z" fill="#1B3B6B"/>
<path d="M76.0329 59.2509C73.821 59.2509 71.7396 58.3888 70.1756 56.8247C66.9465 53.5956 66.9465 48.341 70.1756 45.1101C71.7396 43.5461 73.821 42.684 76.0329 42.684C78.2448 42.684 80.3262 43.5461 81.8902 45.1101C83.4542 46.6742 84.3164 48.7537 84.3164 50.9674C84.3164 53.1794 83.4542 55.2589 81.8902 56.8247C80.3262 58.3888 78.2448 59.2509 76.0329 59.2509Z" fill="#06CCAB"/>
<path d="M76.0329 61.907C73.1103 61.907 70.3637 60.7696 68.298 58.704C64.0327 54.4386 64.0327 47.4997 68.298 43.2343C70.3637 41.1687 73.1103 40.0314 76.0329 40.0314C78.9554 40.0314 81.7021 41.1687 83.7677 43.2343C85.8334 45.3 86.9707 48.0466 86.9707 50.9692C86.9707 53.8917 85.8334 56.6384 83.7677 58.704C81.7003 60.7679 78.9537 61.907 76.0329 61.907ZM76.0329 45.4602C74.5629 45.4602 73.1783 46.0332 72.1385 47.073C69.991 49.2205 69.991 52.7143 72.1385 54.8636C73.1783 55.9034 74.5629 56.4764 76.0329 56.4764C77.5046 56.4764 78.8875 55.9034 79.9273 54.8636C80.9671 53.8238 81.5401 52.4409 81.5401 50.9692C81.5401 49.4974 80.9671 48.1145 79.9273 47.0748C78.8875 46.035 77.5046 45.4602 76.0329 45.4602Z" fill="#1B3B6B"/>
<path d="M107.204 19.7964C106.687 19.2791 105.978 18.9865 105.25 19.0005C104.847 19.0057 95.2489 19.1677 83.3968 22.672L104.327 43.6018C107.833 31.7514 107.995 22.1529 108 21.7506C108.009 21.0191 107.723 20.3137 107.204 19.7964Z" fill="#FE356F"/>
<path d="M103.644 40.9125L94.8657 32.1344L35.6362 91.3639C36.1448 91.8725 36.8362 92.1599 37.5555 92.1599H37.5886C37.8377 92.1564 43.7699 92.0641 52.0464 90.3451C56.7838 89.3593 61.3452 88.0356 65.6037 86.4088C72.2848 83.8555 78.2152 80.562 83.2295 76.6171C84.9555 75.2603 86.6014 73.8025 88.1202 72.2838C95.397 65.007 100.85 55.3581 104.325 43.6051C104.61 42.649 104.347 41.6161 103.644 40.9125Z" fill="#CDEBFC"/>
<path d="M53.903 86.2521L47.3264 79.6755L26.1301 100.872C26.6404 101.38 27.3301 101.668 28.0511 101.668H28.0842C28.6834 101.661 42.8659 101.377 52.0168 92.2244C52.7535 91.4877 53.4606 90.69 54.119 89.8487C54.9672 88.7654 54.8749 87.2223 53.903 86.2521Z" fill="#FDBF00"/>
<path d="M53.4763 73.5239L43.486 83.5142L54.2391 94.2674C54.7477 94.776 55.4374 95.0634 56.1585 95.0634C56.8795 95.0634 57.5692 94.776 58.0778 94.2674L66.1488 86.1964L53.4763 73.5239Z" fill="#001035"/>
<path d="M81.8902 45.1101L70.1756 56.8247C71.7396 58.3887 73.8192 59.2509 76.0329 59.2509C78.2448 59.2509 80.3261 58.3887 81.8902 56.8247C83.4542 55.2607 84.3163 53.1811 84.3163 50.9674C84.3163 48.7555 83.4542 46.6759 81.8902 45.1101Z" fill="#1CADB5"/>
<path d="M83.7677 43.2325L79.9273 47.073C80.9671 48.1127 81.5401 49.4956 81.5401 50.9674C81.5401 52.4391 80.9671 53.822 79.9273 54.8618C78.8875 55.9016 77.5046 56.4746 76.0329 56.4746C74.5611 56.4746 73.1782 55.9016 72.1385 54.8618L68.298 58.7022C70.3637 60.7678 73.1103 61.9052 76.0329 61.9052C78.9554 61.9052 81.7021 60.7678 83.7677 58.7022C85.8333 56.6366 86.9707 53.8899 86.9707 50.9674C86.9707 48.0448 85.8333 45.2999 83.7677 43.2325Z" fill="#001035"/>
<path d="M107.204 19.7947L93.8625 33.136L104.328 43.6018C107.833 31.7514 107.995 22.1529 108 21.7506C108.008 21.0191 107.723 20.3137 107.204 19.7947Z" fill="#FF193D"/>
</svg>
