<svg width="128" height="128" viewBox="0 0 128 128" fill="none" xmlns="http://www.w3.org/2000/svg">
<path d="M113 78.8711H78.1641V76C78.1641 61.7522 66.572 50.1602 52.3242 50.1602C38.0764 50.1602 26.4844 61.7522 26.4844 76V78.8711H15V76C15 62.9118 20.0969 50.6065 29.3517 41.3517C38.6065 32.0969 50.9118 27 64 27C77.0881 27 89.3935 32.0969 98.6483 41.3517C107.903 50.6065 113 62.9118 113 76V78.8711Z" fill="#FFCE2E"/>
<path d="M98.6483 41.3517C89.3935 32.0969 77.0881 27 64 27C50.9118 27 38.6065 32.0969 29.3517 41.3517C28.6713 42.0314 28.0171 42.7305 27.3816 43.4422L38.2678 54.3285C42.3165 51.6936 47.1443 50.1602 52.3242 50.1602C64.1817 50.1602 74.1984 58.1895 77.2257 69.0967L112.953 73.9065C112.439 61.6042 107.408 50.1116 98.6483 41.3517Z" fill="#FF9900"/>
<path d="M78.1641 76V78.8711H113V76C113 62.9118 107.903 50.6065 98.6483 41.3517C89.3935 32.0969 77.0881 27 64 27V52.9527C72.3972 57.2242 78.1641 65.9512 78.1641 76Z" fill="#FE356F"/>
<path d="M100.786 41.3555L56.7139 81.5657C55.1011 83.0372 55.0428 85.5569 56.5868 87.1001L67.3496 97.8629C68.8951 99.4091 71.42 99.3486 72.8899 97.7298L113 53.5666V41.3555H100.786Z" fill="#CCF2EE"/>
<path d="M67.3489 97.8629C68.8951 99.4091 71.42 99.3486 72.8899 97.7298L113 53.5666V41.3555L61.9633 92.4774L67.3489 97.8629Z" fill="#01BDAA"/>
<path d="M63.9992 101.937C60.9315 101.937 58.047 100.742 55.8779 98.5732C51.4008 94.0954 51.4008 86.8092 55.8779 82.3313C58.047 80.1623 60.9315 78.9675 63.9992 78.9675C67.0662 78.9675 69.9508 80.1623 72.1198 82.3313C76.5977 86.8092 76.5977 94.0946 72.1198 98.5732C69.9508 100.742 67.0662 101.937 63.9992 101.937Z" fill="#410182"/>
</svg>
