<svg width="501" height="507" viewBox="0 0 501 507" fill="none" xmlns="http://www.w3.org/2000/svg">
<path d="M331.654 358.771C348.104 347.154 351.047 316.72 347.024 296.302C342.318 272.456 330.008 271.826 327.794 253.001C323.673 217.942 364.671 205.758 363.321 170.069C362.214 140.896 334.39 137.971 334.633 105.612C334.813 82.2605 349.382 72.5599 342.84 52.187C342.282 50.4413 335.974 31.7511 320.01 27.3777C303.894 22.9684 287.354 35.7285 279.174 46.0139C264.057 65.0191 275.251 78.3821 265.595 107.484C252.457 147.114 223.932 145.809 220.287 176.989C217.273 202.734 236.035 209.564 232.129 238.045C228.503 264.492 211.019 268.218 210.281 286.242C208.571 327.717 298.098 382.474 331.654 358.771Z" fill="#6165D7"/>
<path opacity="0.7" d="M307.934 378.01C308.042 378.01 308.15 377.956 308.204 377.857C308.294 377.704 308.24 377.515 308.087 377.425C292.753 368.417 279.984 356.602 270.122 342.303C260.781 328.76 251.125 314.749 251.899 297.382C252.484 284.244 258.648 277.162 266.459 268.199C274.063 259.47 283.521 248.609 290.153 228.452C293.941 216.943 298.647 202.626 295.003 185.393C292.879 175.36 288.965 169.7 285.509 164.706C281.892 159.477 279.039 155.347 279.606 148.022C280.524 136.063 286.985 128.342 294.454 119.406C299.07 113.89 303.84 108.176 308.042 100.734C319.866 79.7853 320.208 51.6465 309.032 17.1007C308.978 16.9387 308.798 16.8397 308.636 16.8937C308.474 16.9477 308.375 17.1277 308.429 17.2897C319.542 51.6645 319.227 79.6323 307.484 100.419C303.309 107.807 298.557 113.494 293.959 118.992C286.418 128.009 279.903 135.802 278.967 147.959C278.382 155.509 281.442 159.936 284.978 165.048C288.398 169.988 292.267 175.594 294.373 185.51C297.99 202.572 293.302 216.799 289.541 228.236C282.954 248.267 273.532 259.083 265.964 267.767C258.072 276.82 251.845 283.974 251.251 297.337C250.468 314.92 260.187 329.012 269.591 342.645C279.507 357.025 292.348 368.903 307.763 377.956C307.826 377.992 307.88 378.01 307.934 378.01Z" fill="white"/>
<path opacity="0.7" d="M295.849 193.969C295.921 193.969 296.002 193.942 296.056 193.888C322.386 170.366 334.75 148.517 340.482 134.335C346.709 118.939 346.691 108.968 346.691 108.869C346.691 108.698 346.556 108.536 346.376 108.554C346.205 108.554 346.061 108.698 346.061 108.869C346.061 108.968 346.07 118.84 339.879 134.128C334.165 148.238 321.855 169.979 295.633 193.411C295.507 193.528 295.489 193.726 295.606 193.861C295.669 193.933 295.759 193.969 295.849 193.969Z" fill="white"/>
<path opacity="0.7" d="M283.26 244.524C283.35 244.524 283.44 244.488 283.503 244.408C283.611 244.273 283.593 244.075 283.458 243.967C268.952 232.115 257.928 218.68 250.685 204.04C244.889 192.323 241.497 179.815 240.588 166.857C239.04 144.783 245.339 128.838 245.402 128.676C245.465 128.514 245.393 128.334 245.231 128.262C245.069 128.199 244.889 128.271 244.817 128.433C244.754 128.595 238.401 144.648 239.958 166.857C240.867 179.905 244.287 192.494 250.118 204.292C257.398 219.022 268.484 232.529 283.062 244.444C283.116 244.497 283.188 244.524 283.26 244.524Z" fill="white"/>
<path opacity="0.7" d="M259.35 328.05C259.377 328.05 259.413 328.05 259.44 328.041C298.278 316.649 318.552 295.916 328.721 280.528C339.744 263.845 341.598 249.654 341.616 249.519C341.634 249.348 341.517 249.186 341.337 249.168C341.166 249.15 341.004 249.267 340.986 249.447C340.968 249.591 339.123 263.656 328.172 280.213C318.067 295.502 297.901 316.1 259.26 327.438C259.089 327.483 258.999 327.663 259.044 327.834C259.089 327.96 259.215 328.05 259.35 328.05Z" fill="white"/>
<path opacity="0.7" d="M309.059 96.9643C309.14 96.9643 309.212 96.9373 309.275 96.8833C309.401 96.7663 309.41 96.5683 309.293 96.4334C287.444 72.7399 284.78 48.0386 286.4 31.4811C288.146 13.5378 295.147 1.05666 295.219 0.930679C295.309 0.777702 295.255 0.588731 295.102 0.498744C294.949 0.408758 294.76 0.462749 294.67 0.615727C294.598 0.741708 287.534 13.3398 285.77 31.4181C284.142 48.1016 286.823 72.9919 308.834 96.8563C308.888 96.9283 308.978 96.9643 309.059 96.9643Z" fill="white"/>
<path d="M270.58 384.184C273.478 387.252 282.486 391.382 285.275 391.49C303.848 392.21 338.538 395.801 353.737 383.347C356.329 381.223 350.057 367.275 351.316 363.775C349.472 353.912 348.221 350.61 351.073 340.369C359.496 310.152 422.964 319.078 405.686 267.651C393.025 229.983 363.645 211.724 413.686 180.454C463.737 149.184 523.146 48.3988 453.406 22.1947C413.38 7.15796 394.123 65.8742 353.458 72.7041C314.809 79.1922 300.168 108.195 305.009 150.74C309.86 193.277 285.059 186.672 251.701 197.488C211.639 210.483 242.082 264.519 258.261 288.276C271.282 307.389 291.565 364.881 270.58 384.184Z" fill="url(#paint0_linear_111_152)"/>
<g opacity="0.7">
<g opacity="0.7">
<path opacity="0.7" d="M317.823 387.98L318.705 387.827C294.751 251.704 354.151 116.112 477.603 25.1271L477.072 24.4072C418.563 67.5288 372.76 122.825 344.603 184.331C315.016 248.978 305.756 319.401 317.823 387.98Z" fill="#FCFDFE"/>
<path opacity="0.7" d="M234.424 200.969C265.055 223.124 300.6 271.564 313.657 308.953L314.503 308.656C301.401 271.123 265.712 222.485 234.946 200.24L234.424 200.969Z" fill="#FCFDFE"/>
<path opacity="0.7" d="M313.432 361.2L314.323 361.298C316.51 340.827 328.964 322.253 351.343 306.092C367.748 294.241 389.003 283.937 414.523 275.46L414.244 274.605C388.643 283.109 367.307 293.458 350.822 305.363C328.226 321.686 315.646 340.467 313.432 361.2Z" fill="#FCFDFE"/>
<path opacity="0.7" d="M348.95 175.747L349.841 175.891C355.951 137.52 338.304 100.671 322.413 76.5186L321.666 77.0135C337.458 101.031 355.015 137.664 348.95 175.747Z" fill="#FCFDFE"/>
<path opacity="0.7" d="M396.642 100.67L397.218 101.354C430.693 73.1524 476.586 70.8937 500.955 72.0545L501 71.1547C476.496 69.9938 430.351 72.2795 396.642 100.67Z" fill="#FCFDFE"/>
</g>
</g>
<path d="M345.791 334.97C353.935 336.545 362.835 333.44 368.126 326.466L442.779 228.165C449.573 219.211 447.827 206.622 438.828 199.972C429.767 193.277 412.741 193.943 405.812 202.969L329.657 302.161C322.476 311.511 324.491 324.307 334.102 330.678C336.477 332.252 343.109 334.448 345.791 334.97Z" fill="url(#paint1_linear_111_152)"/>
<path opacity="0.3" d="M438.828 199.972C429.767 193.277 412.741 193.943 405.812 202.969L336.181 293.666C343.874 293.693 352.36 296.087 362.421 291.039C379.167 282.634 376.459 265.572 390.82 254.738C397.389 249.789 408.242 245.604 427.355 248.475L442.779 228.165C449.582 219.22 447.827 206.622 438.828 199.972Z" fill="#97A6B7"/>
<path d="M472.168 185.295C471.772 185.196 471.376 185.124 470.972 185.07L442.671 177.358L423.432 251.147L450.932 257.914C451.588 258.274 452.281 258.562 453.01 258.751C462.738 261.289 474.904 246.9 480.195 226.617C485.495 206.334 481.896 187.833 472.168 185.295Z" fill="url(#paint2_linear_111_152)"/>
<path d="M442.68 177.358C447.026 204.732 440.637 229.217 423.441 251.147L194.65 263.988L246.455 56.3174L442.68 177.358Z" fill="url(#paint3_linear_111_152)"/>
<path d="M267.503 217.969C289.559 215.593 303.381 188.102 326.939 193.195C345.422 197.191 346.304 216.385 364.715 219.138C383.568 221.955 391.801 202.986 414.154 201.375C424.313 200.637 433.933 203.769 442.716 208.925C440.16 223.935 433.753 237.982 423.432 251.147L194.641 263.988L225.461 196.921C243.117 214.495 256.813 219.12 267.503 217.969Z" fill="#01A4AA"/>
<path d="M262.968 170.339C247.553 229.487 212.062 271.439 183.698 264.051C155.335 256.654 144.851 202.716 160.266 143.568C175.681 84.4202 211.171 42.4685 239.535 49.8564C267.899 57.2533 278.391 111.191 262.968 170.339Z" fill="url(#paint4_linear_111_152)"/>
<path d="M184.652 260.415C178.632 258.849 173.377 254.782 169.022 248.321C164.594 241.752 161.31 233.068 159.258 222.495C154.939 200.277 156.586 172.588 163.91 144.512C171.226 116.437 183.312 91.4654 197.925 74.188C204.881 65.9722 211.99 59.9881 219.054 56.4157C226.001 52.9062 232.57 51.9253 238.599 53.4911C244.619 55.0569 249.875 59.1243 254.23 65.5853C258.657 72.1543 261.942 80.838 263.993 91.4114C265.802 100.698 266.567 110.947 266.306 121.782C265.946 136.855 252.421 149.165 248.165 165.497C243.638 182.865 248.471 202.95 240.822 216.862C236.107 225.428 230.905 233.14 225.335 239.727C218.379 247.943 211.27 253.927 204.206 257.5C197.241 261 190.672 261.981 184.652 260.415Z" fill="url(#paint5_linear_111_152)"/>
<path d="M69.1096 295.79L455.476 285.37C475.444 284.83 491.884 300.937 491.884 321.364V398.762C491.884 419.18 475.444 435.134 455.476 434.405L69.1096 420.295C55.3867 419.792 44.4083 405.943 44.4083 389.358V326.493C44.3993 309.9 55.3867 296.159 69.1096 295.79Z" fill="#97A6B7"/>
<path d="M455.476 429.554C472.735 430.148 486.962 416.29 486.962 398.662V321.418C486.962 303.78 472.735 289.796 455.476 290.219L69.1097 299.848C57.2225 300.145 47.6659 312.077 47.6659 326.457V389.429C47.6659 403.809 57.2315 415.831 69.1097 416.236L455.476 429.554Z" fill="url(#paint6_linear_111_152)"/>
<path d="M406.955 320.78L396.454 342.961C396.067 343.78 395.32 344.347 394.456 344.482L371.365 348.019C369.233 348.343 368.387 351.105 369.926 352.689L386.564 369.813C387.185 370.452 387.473 371.37 387.32 372.261L383.37 396.324C383.001 398.564 385.259 400.328 387.185 399.311L408.107 388.27C408.89 387.856 409.826 387.874 410.608 388.315L431.962 400.31C433.978 401.444 436.336 399.743 435.949 397.43L431.827 372.729C431.674 371.811 431.971 370.884 432.619 370.245L450.203 352.833C451.858 351.195 450.94 348.334 448.664 348.001L424.466 344.428C423.576 344.293 422.811 343.726 422.415 342.899L411.778 320.717C410.788 318.665 407.936 318.701 406.955 320.78Z" fill="#D8DEE8"/>
<path d="M321.882 321.815L312.145 343.177C311.785 343.969 311.092 344.509 310.292 344.644L288.857 348.046C286.877 348.361 286.094 351.015 287.516 352.545L302.958 369.039C303.534 369.651 303.794 370.533 303.66 371.397L299.988 394.578C299.646 396.737 301.743 398.438 303.534 397.448L322.944 386.803C323.672 386.407 324.536 386.416 325.265 386.839L345.062 398.366C346.925 399.455 349.112 397.808 348.752 395.594L344.927 371.82C344.783 370.938 345.062 370.047 345.656 369.435L361.944 352.68C363.474 351.105 362.628 348.352 360.513 348.028L338.097 344.59C337.278 344.464 336.568 343.915 336.199 343.114L326.336 321.761C325.436 319.772 322.8 319.808 321.882 321.815Z" fill="url(#paint7_linear_111_152)"/>
<path d="M242.883 322.058L233.83 342.656C233.497 343.411 232.849 343.942 232.102 344.068L212.161 347.353C210.316 347.659 209.588 350.223 210.919 351.69L225.29 367.609C225.83 368.203 226.073 369.049 225.947 369.886L222.537 392.247C222.222 394.326 224.165 395.964 225.83 395.019L243.881 384.733C244.556 384.346 245.366 384.364 246.041 384.769L264.443 395.874C266.18 396.917 268.205 395.334 267.872 393.192L264.326 370.272C264.191 369.427 264.452 368.563 265.001 367.969L280.128 351.816C281.55 350.295 280.767 347.65 278.805 347.335L257.982 344.014C257.217 343.888 256.561 343.367 256.219 342.593L247.049 321.995C246.194 320.096 243.737 320.132 242.883 322.058Z" fill="url(#paint8_linear_111_152)"/>
<path d="M169.337 322.958L160.896 342.845C160.581 343.582 159.987 344.086 159.285 344.203L140.685 347.38C138.966 347.677 138.282 350.151 139.524 351.573L152.932 366.943C153.436 367.519 153.661 368.338 153.544 369.139L150.359 390.744C150.062 392.76 151.879 394.335 153.436 393.417L170.273 383.473C170.902 383.105 171.649 383.114 172.279 383.509L189.422 394.218C191.032 395.226 192.922 393.696 192.616 391.626L189.314 369.508C189.188 368.689 189.431 367.861 189.944 367.285L204.036 351.69C205.358 350.223 204.629 347.668 202.803 347.362L183.402 344.158C182.691 344.041 182.079 343.528 181.755 342.791L173.206 322.904C172.414 321.059 170.12 321.095 169.337 322.958Z" fill="#D8DEE8"/>
<path d="M100.677 323.785L92.7851 343.015C92.4972 343.726 91.9303 344.221 91.2824 344.329L73.888 347.398C72.2772 347.686 71.6383 350.079 72.7991 351.456L85.3433 366.313C85.8112 366.871 86.0272 367.663 85.9102 368.437L82.9316 389.331C82.6527 391.275 84.3534 392.805 85.8112 391.914L101.55 382.294C102.135 381.935 102.837 381.944 103.431 382.33L119.448 392.67C120.96 393.642 122.724 392.166 122.436 390.168L119.349 368.797C119.232 368.005 119.457 367.204 119.943 366.646L133.099 351.573C134.332 350.16 133.657 347.686 131.947 347.398L113.833 344.302C113.167 344.185 112.591 343.69 112.294 342.979L104.312 323.758C103.557 321.959 101.424 321.986 100.677 323.785Z" fill="#D8DEE8"/>
<g opacity="0.1">
<path opacity="0.1" d="M126.008 364.152C175.879 350.573 209.39 418.576 267.377 403.638C317.661 390.689 319.065 334.618 378.825 294.709C382.92 291.974 387.095 289.445 391.333 287.096L455.476 285.369C475.444 284.829 491.884 300.936 491.884 321.363V398.761C491.884 419.179 475.444 435.133 455.476 434.404L71.7283 420.384C90.1755 382.212 109.694 368.588 126.008 364.152Z" fill="#97A6B7"/>
</g>
<path d="M406.955 320.779L396.454 342.961C396.067 343.779 395.32 344.346 394.456 344.481L371.365 348.018C369.233 348.342 368.387 351.104 369.926 352.688L386.564 369.813C387.185 370.451 387.473 371.369 387.32 372.26L383.37 396.323C383.001 398.563 385.259 400.327 387.185 399.31L408.107 388.269C408.89 387.855 409.826 387.873 410.608 388.314L431.962 400.309C433.978 401.443 436.336 399.742 435.949 397.429L431.827 372.728C431.674 371.81 431.971 370.883 432.619 370.244L450.203 352.832C451.858 351.194 450.94 348.333 448.664 348L424.466 344.427C423.576 344.292 422.811 343.725 422.415 342.898L411.778 320.716C410.788 318.664 407.936 318.7 406.955 320.779Z" fill="url(#paint9_linear_111_152)"/>
<path d="M269.969 123.78C269.465 138.34 267.188 154.15 262.968 170.339C258.522 187.41 252.403 203.049 245.258 216.484C227.657 249.599 203.874 269.315 183.699 264.051C155.344 256.654 144.851 202.716 160.266 143.568C175.69 84.4199 211.18 42.4682 239.535 49.8651C260.133 55.2283 271.309 85.1488 269.969 123.78Z" fill="url(#paint10_linear_111_152)"/>
<path d="M184.652 260.415C178.632 258.849 173.377 254.782 169.022 248.321C164.594 241.752 161.31 233.068 159.258 222.495C154.939 200.277 156.586 172.588 163.91 144.512C171.226 116.437 183.312 91.4654 197.925 74.188C204.881 65.9722 211.99 59.9881 219.054 56.4157C226.001 52.9062 232.57 51.9253 238.599 53.4911C244.619 55.0569 249.875 59.1243 254.23 65.5853C258.657 72.1543 261.942 80.838 263.993 91.4114C265.802 100.698 266.567 110.947 266.306 121.782C265.946 136.855 252.421 149.165 248.165 165.497C243.638 182.865 248.471 202.95 240.822 216.862C236.107 225.428 230.905 233.14 225.335 239.727C218.379 247.943 211.27 253.927 204.206 257.5C197.241 261 190.672 261.981 184.652 260.415Z" fill="url(#paint11_linear_111_152)"/>
<path d="M269.969 123.78C269.465 138.34 267.188 154.151 262.968 170.339C258.522 187.41 252.403 203.049 245.258 216.484C241.632 216.835 237.942 216.619 234.298 215.764C212.305 210.617 199.959 184.395 207.032 157.264C214.105 130.124 237.753 112.991 259.548 118.894C263.346 119.929 266.837 121.594 269.969 123.78Z" fill="url(#paint12_linear_111_152)"/>
<path opacity="0.3" d="M210.595 157.715C205.34 177.863 209.93 196.139 220.683 198.506C231.265 200.837 243.872 186.817 248.975 167.236C254.077 147.646 249.875 129.459 239.436 126.571C228.827 123.646 215.851 137.567 210.595 157.715Z" fill="#97A6B7"/>
<path d="M29.2817 485.823C29.2817 485.823 26.4292 488.64 26.3662 489.675C26.3032 490.71 26.1142 501.796 27.275 502.831C28.4359 503.866 31.8553 504.604 30.7575 505.765C29.9296 506.646 23.5406 506.457 19.3022 506.223C18.0694 506.151 16.5126 496.154 16.0267 494.687C15.3158 492.554 12.7512 487.911 13.3991 486.417C13.7141 485.689 16.0537 484.042 18.1774 482.647C20.4091 481.189 22.5507 477.932 22.5507 477.932L29.2817 485.823Z" fill="#F7A491"/>
<path d="M67.418 492.744C67.418 492.744 64.8624 500.051 64.8624 500.069C64.6734 501.23 63.9265 504.082 63.9265 505.135C63.9265 509.085 81.5099 501.778 77.5685 500.033C77.2085 499.871 76.0927 498.611 75.9757 497.261C75.7957 495.191 77.4605 492.591 77.4605 492.591L67.418 492.744Z" fill="#F7A491"/>
<path d="M96.7716 354.633C96.7716 354.633 98.0944 366.718 98.0944 366.916C98.0944 388.099 100.569 429.475 99.7771 433.452C97.8604 443.162 76.8665 496.029 76.8665 496.029L65.9872 494.472L80.556 432.03L75.1928 408.148L67.6069 360.95L96.7716 354.633Z" fill="#2D2861"/>
<path d="M55.7826 365.207L53.6589 377.616L47.9178 428.692L19.824 480.525C19.824 480.525 24.0443 487.013 28.5797 488.029L68.4527 435.639L90.0585 370.057L89.3026 355.488L55.7826 365.207Z" fill="#352E73"/>
<path d="M100.866 222.991C101.208 223.656 102.603 225.438 102.603 225.438C102.603 225.438 99.4262 259.426 99.1742 261.55L89.5187 276.173L100.344 284.118C100.344 284.118 111.367 266.463 111.466 265.599C111.565 264.735 111.115 239.296 111.115 239.296C111.115 239.296 110.306 226.095 110.306 225.438C110.306 224.781 112.249 220.525 112.636 218.815C112.996 217.231 113.095 212.336 113.095 212.336L112.285 211.175L108.533 210.356L105.878 210.662C105.878 210.662 99.7501 213.146 99.5072 213.929C99.3992 214.289 99.7141 218.995 100.074 220.642C100.191 221.236 100.587 222.433 100.866 222.991Z" fill="#F7A491"/>
<path d="M102.054 216.602C102.054 216.602 102.657 218.041 103.592 219.157C104.528 220.273 106.373 219.994 107.462 218.554C108.551 217.115 108.956 215.675 108.956 215.675L102.054 216.602Z" fill="#FE875E"/>
<path d="M66.2029 44.9434L69.9464 107.322L20.6877 145.764L81.1677 161.485L102.512 220.21L136.149 167.55L198.6 165.399L158.907 117.14L176.157 57.0735L117.99 79.9121L66.2029 44.9434Z" fill="url(#paint13_linear_111_152)"/>
<path d="M75.5707 137.368C107.327 119.254 144.815 120.262 174.997 136.703L198.6 165.399L136.15 167.55L102.513 220.219L81.1679 161.485L53.578 154.313C59.958 147.825 67.292 142.093 75.5707 137.368Z" fill="url(#paint14_linear_111_152)"/>
<path d="M102.027 216.71C102.072 215.972 101.955 214.415 101.955 214.415C101.955 214.415 103.53 211.338 103.17 211.131C101.919 210.411 99.4622 213.875 99.4622 213.875C99.4622 213.875 101.892 219.121 102.027 216.71Z" fill="#F7A491"/>
<path d="M112.546 218.734C112.546 218.734 114.247 212.354 113.518 210.555C113.05 209.403 106.742 206.91 105.932 208.026C105.194 209.043 111.25 211.148 111.061 211.391C110.755 211.796 106.481 208.89 105.698 209.448C104.816 210.069 109.819 213.119 109.595 213.596C109.451 213.902 106.652 210.986 106.355 212.282C106.058 213.569 112.546 218.734 112.546 218.734Z" fill="#F7A491"/>
<path d="M96.9515 347.271L94.7468 317.072C94.0359 309.612 93.7659 303.664 94.3689 301.513C95.6557 296.942 105.041 281.581 105.041 281.581C105.041 281.581 96.0426 271.565 89.6626 271.565C89.6626 271.565 82.5896 285.18 74.1939 286.386C65.7981 287.583 67.5979 287.637 64.1784 287.997C60.174 288.42 56.3765 289.059 53.29 290.346C46.874 293.018 51.7062 317.036 52.4351 320.941C53.542 326.844 51.4723 376.598 51.4723 376.598C51.4723 376.598 69.8835 380.746 98.1033 366.924L96.9515 347.271Z" fill="url(#paint15_linear_111_152)"/>
<path d="M65.9061 274.797L63.9084 288.25C63.9084 288.25 71.2873 303.926 75.7147 302.558C79.4311 301.406 77.1005 287.053 77.1005 287.053C77.1005 287.053 75.1208 279.872 75.7327 276.102C76.3356 272.34 65.9061 274.797 65.9061 274.797Z" fill="#F7A491"/>
<path d="M67.337 278.864C69.2447 279.827 73.0062 281.132 75.9307 281.447C75.6518 279.566 75.4898 277.568 75.7328 276.102C76.0117 274.365 73.942 273.951 71.6294 274.014C68.6058 274.293 65.9062 274.797 65.9062 274.797L65.5193 277.379C66.0952 278.027 66.6981 278.54 67.337 278.864Z" fill="#FE875E"/>
<path d="M56.3136 259.273C55.9986 259.273 59.3191 274.31 64.4484 276.892C69.5776 279.475 77.2354 278.134 78.6752 274.085C80.268 269.603 74.4729 254.27 67.2469 252.326C60.03 250.373 56.3136 259.273 56.3136 259.273Z" fill="#F7A491"/>
<path d="M16.9445 308.064L21.9117 338.093L0 359.213L30.0915 363.766L43.4095 391.131L57.0335 363.919L87.1789 359.708L65.5102 338.345L70.8194 308.37L43.8054 322.381L16.9445 308.064Z" fill="url(#paint16_linear_111_152)"/>
<path d="M26.1591 352.365C40.629 341.98 58.8332 340.568 74.2929 347.002L87.179 359.708L57.0335 363.91L43.4096 391.131L30.0916 363.757L16.3596 361.678C19.1312 358.223 22.3887 355.073 26.1591 352.365Z" fill="url(#paint17_linear_111_152)"/>
<path d="M35.4545 315.173C35.4545 315.173 28.8765 324.082 28.4806 325.647C28.0756 327.213 30.9552 364.197 31.1082 367.464C31.1082 367.464 29.8934 371.405 29.2095 373.916C28.5256 376.418 28.2196 378.28 28.5616 378.775C28.9035 379.27 29.9653 378.928 30.3793 379.873C30.7932 380.818 32.008 380.674 32.386 380.863C32.7639 381.052 33.8798 382.456 34.3027 382.42C34.7166 382.384 35.4005 382.303 35.7605 382.537C36.1204 382.762 36.7233 383.392 37.5782 383.239C38.4331 383.086 38.856 382.6 38.856 382.6C38.856 382.6 38.1901 375.797 38.676 375.824C39.171 375.842 40.4218 376.409 40.5928 376.832C40.7637 377.246 40.6917 378.181 40.8537 378.595C41.0247 379.009 41.5916 379.414 42.1045 379.243C42.6174 379.072 42.5365 376.742 42.5365 376.742C42.5365 376.742 42.4645 374.843 41.7806 373.727C39.4139 369.849 38.901 370.389 38.595 369.894C38.4421 369.651 38.631 360.067 38.631 360.067C38.631 360.067 39.5759 332.855 39.6839 331.388L46.6128 321.121L35.4545 315.173Z" fill="#F8A492"/>
<path d="M32.7191 315.272L46.577 325.693C46.577 325.693 54.1449 314.273 58.2123 310.215C63.3055 305.122 56.1516 288.96 53.0831 290.409C45.5242 293.99 32.7191 315.272 32.7191 315.272Z" fill="url(#paint18_linear_111_152)"/>
<path d="M62.2527 245.46C58.1583 247.98 56.2686 251.723 55.6387 253.262C53.713 254.234 51.3823 256.349 50.2665 262.027C48.8897 269.01 53.776 274.391 58.9592 276.011C64.1424 277.631 65.0153 281.284 65.0153 281.284L65.5282 277.343C65.5282 277.343 64.3764 273.914 62.6396 272.204C60.9029 270.486 63.4585 267.993 63.6835 265.95C63.8545 264.385 62.7746 261.334 63.0086 258.751L63.6385 256.619C63.6385 256.619 65.6902 253.352 68.7227 252.947C71.7643 252.542 67.5169 242.221 62.2527 245.46Z" fill="#2D2861"/>
<path d="M64.4393 268.567C65.1142 270.304 64.8352 272.023 63.8274 272.419C62.8195 272.806 61.4607 271.717 60.7858 269.98C60.1199 268.244 60.3899 266.516 61.3977 266.129C62.4056 265.742 63.7644 266.831 64.4393 268.567Z" fill="#F7A491"/>
<path d="M18.3213 482.575C18.3213 482.575 24.8903 501.328 27.4639 502.228C28.1478 502.471 31.4233 503.074 32.0442 504.55C32.2332 504.991 32.0442 506.467 32.0442 506.467H18.3483C18.3483 506.467 16.6205 498.206 15.9276 494.579C15.9276 494.579 12.3012 485.707 12.7061 484.906C13.1111 484.105 18.3213 482.575 18.3213 482.575Z" fill="#2D2861"/>
<path d="M62.9186 506.439L64.9343 499.987C64.9343 499.987 69.1636 501.805 71.2783 501.499C73.393 501.193 77.5234 499.987 77.5234 499.987C85.9641 502.804 92.8751 504.172 91.6243 506.439H62.9186Z" fill="#2D2861"/>
<defs>
<linearGradient id="paint0_linear_111_152" x1="231.882" y1="206.126" x2="485.228" y2="206.126" gradientUnits="userSpaceOnUse">
<stop stop-color="#FF9085"/>
<stop offset="1" stop-color="#FB6FBB"/>
</linearGradient>
<linearGradient id="paint1_linear_111_152" x1="431.683" y1="276.986" x2="340.678" y2="253.259" gradientUnits="userSpaceOnUse">
<stop stop-color="#311944"/>
<stop offset="1" stop-color="#893976"/>
</linearGradient>
<linearGradient id="paint2_linear_111_152" x1="542.85" y1="217.202" x2="404.399" y2="218.679" gradientUnits="userSpaceOnUse">
<stop stop-color="#311944"/>
<stop offset="1" stop-color="#893976"/>
</linearGradient>
<linearGradient id="paint3_linear_111_152" x1="210.08" y1="160.156" x2="459.428" y2="160.156" gradientUnits="userSpaceOnUse">
<stop stop-color="#01BDAA"/>
<stop offset="1" stop-color="#01E3B2"/>
</linearGradient>
<linearGradient id="paint4_linear_111_152" x1="286.199" y1="104.557" x2="137.043" y2="209.353" gradientUnits="userSpaceOnUse">
<stop offset="0.00359712" stop-color="#E38DDD"/>
<stop offset="1" stop-color="#9571F6"/>
</linearGradient>
<linearGradient id="paint5_linear_111_152" x1="277.082" y1="172.252" x2="166.377" y2="146.381" gradientUnits="userSpaceOnUse">
<stop stop-color="#311944"/>
<stop offset="1" stop-color="#893976"/>
</linearGradient>
<linearGradient id="paint6_linear_111_152" x1="386.192" y1="535.718" x2="192.698" y2="242.101" gradientUnits="userSpaceOnUse">
<stop offset="0.00359712" stop-color="#EBEFF2"/>
<stop offset="1" stop-color="white"/>
</linearGradient>
<linearGradient id="paint7_linear_111_152" x1="322.062" y1="361.517" x2="261.03" y2="531.184" gradientUnits="userSpaceOnUse">
<stop stop-color="#FFC444"/>
<stop offset="0.9964" stop-color="#F36F56"/>
</linearGradient>
<linearGradient id="paint8_linear_111_152" x1="251.845" y1="336.26" x2="190.814" y2="505.926" gradientUnits="userSpaceOnUse">
<stop stop-color="#FFC444"/>
<stop offset="0.9964" stop-color="#F36F56"/>
</linearGradient>
<linearGradient id="paint9_linear_111_152" x1="451.044" y1="359.934" x2="369.138" y2="359.934" gradientUnits="userSpaceOnUse">
<stop stop-color="#FFC444"/>
<stop offset="0.9964" stop-color="#F36F56"/>
</linearGradient>
<linearGradient id="paint10_linear_111_152" x1="153.16" y1="156.956" x2="270.078" y2="156.956" gradientUnits="userSpaceOnUse">
<stop stop-color="#FFC444"/>
<stop offset="0.9964" stop-color="#F36F56"/>
</linearGradient>
<linearGradient id="paint11_linear_111_152" x1="502.945" y1="205.661" x2="147.912" y2="146.302" gradientUnits="userSpaceOnUse">
<stop stop-color="#311944"/>
<stop offset="1" stop-color="#893976"/>
</linearGradient>
<linearGradient id="paint12_linear_111_152" x1="228.042" y1="167.185" x2="292.975" y2="167.185" gradientUnits="userSpaceOnUse">
<stop stop-color="#FFC444"/>
<stop offset="0.9964" stop-color="#F36F56"/>
</linearGradient>
<linearGradient id="paint13_linear_111_152" x1="198.6" y1="132.578" x2="20.6868" y2="132.578" gradientUnits="userSpaceOnUse">
<stop stop-color="#FFC444"/>
<stop offset="0.9964" stop-color="#F36F56"/>
</linearGradient>
<linearGradient id="paint14_linear_111_152" x1="198.599" y1="172.146" x2="53.5768" y2="172.146" gradientUnits="userSpaceOnUse">
<stop stop-color="#FFC444"/>
<stop offset="0.9964" stop-color="#F36F56"/>
</linearGradient>
<linearGradient id="paint15_linear_111_152" x1="105.04" y1="324.374" x2="50.012" y2="324.374" gradientUnits="userSpaceOnUse">
<stop offset="0.00359712" stop-color="#6165D7"/>
<stop offset="1" stop-color="#AA80F9"/>
</linearGradient>
<linearGradient id="paint16_linear_111_152" x1="87.1826" y1="349.601" x2="0" y2="349.601" gradientUnits="userSpaceOnUse">
<stop stop-color="#FFC444"/>
<stop offset="0.9964" stop-color="#F36F56"/>
</linearGradient>
<linearGradient id="paint17_linear_111_152" x1="87.1827" y1="367.129" x2="16.3659" y2="367.129" gradientUnits="userSpaceOnUse">
<stop stop-color="#FFC444"/>
<stop offset="0.9964" stop-color="#F36F56"/>
</linearGradient>
<linearGradient id="paint18_linear_111_152" x1="59.9858" y1="308.009" x2="32.72" y2="308.009" gradientUnits="userSpaceOnUse">
<stop offset="0.00359712" stop-color="#6165D7"/>
<stop offset="1" stop-color="#AA80F9"/>
</linearGradient>
</defs>
</svg>
