<svg width="128" height="128" viewBox="0 0 128 128" fill="none" xmlns="http://www.w3.org/2000/svg">
<path d="M92.5424 55.6739C92.2877 55.6241 90.3278 55.2475 87.5074 54.7429V42.6278C87.5074 29.5996 77.0318 19 64.1537 19C51.2756 19 40.7982 29.5996 40.7982 42.6278V54.6878C37.8127 55.2208 35.7193 55.6241 35.4559 55.6739C34.6112 55.8373 34 56.5835 34 57.4541V77.8626C34 84.2213 38.9647 91.5482 48.7555 99.6445C55.8381 105.5 62.8032 109.556 63.0964 109.725C63.3722 109.885 63.6795 109.965 63.9868 109.965C64.2942 109.965 64.6015 109.885 64.8772 109.725C65.1705 109.555 72.1425 105.5 79.2305 99.6445C89.03 91.55 94 84.2213 94 77.8626V57.4541C93.9982 56.5835 93.3871 55.8373 92.5424 55.6739ZM68.5424 83.2565C68.6056 83.6563 68.4914 84.0631 68.2315 84.3723C67.9716 84.6796 67.5923 84.8573 67.1919 84.8573H61.1137C60.7098 84.8573 60.3269 84.6761 60.067 84.3652C59.8071 84.0525 59.6965 83.6403 59.7667 83.2388L60.6729 77.9656C59.7351 77.0311 59.1942 75.7501 59.1942 74.391C59.1942 71.6247 61.4193 69.3737 64.1519 69.3737C66.8863 69.3737 69.1096 71.6247 69.1096 74.391C69.1096 75.7093 68.5933 76.9671 67.6959 77.8963L68.5424 83.2565ZM76.0659 52.849C71.3452 52.1472 66.7388 51.5929 63.9868 51.5929H63.9851C61.2981 51.5929 56.8427 52.1241 52.2397 52.8028V42.6278C52.2397 35.9831 57.5838 30.575 64.1537 30.575C70.7235 30.575 76.0676 35.9813 76.0676 42.6278V52.849H76.0659Z" fill="#922FF7"/>
<path d="M63.9886 55.2173L37.5826 58.9589V77.8626C37.5826 83.006 42.2295 89.5673 51.0227 96.8374C56.4352 101.313 61.8952 104.77 63.9868 106.046C66.0855 104.765 71.577 101.291 77.0001 96.8072C85.7775 89.5495 90.4174 82.9989 90.4174 77.8608V58.9572C85.5563 58.0528 69.8753 55.2173 63.9886 55.2173ZM68.5424 83.2566C68.6056 83.6563 68.4914 84.0632 68.2315 84.3723C67.9716 84.6797 67.5923 84.8573 67.1919 84.8573H61.1137C60.7098 84.8573 60.3269 84.6761 60.067 84.3652C59.8071 84.0525 59.6965 83.6403 59.7667 83.2388L60.6729 77.9657C59.7351 77.0311 59.1942 75.7502 59.1942 74.391C59.1942 71.6248 61.4193 69.3737 64.1519 69.3737C66.8863 69.3737 69.1096 71.6248 69.1096 74.391C69.1096 75.7093 68.5933 76.9672 67.6959 77.8964L68.5424 83.2566Z" fill="#5A09AC"/>
<path d="M41.9678 60.677C40.9791 60.677 40.1765 61.4889 40.1765 62.4892V64.8451C40.1765 65.8453 40.9791 66.6573 41.9678 66.6573C42.9566 66.6573 43.7591 65.8453 43.7591 64.8451V62.4892C43.7591 61.4889 42.9566 60.677 41.9678 60.677Z" fill="#CCF2EE"/>
<path d="M41.9678 69.7379C40.9791 69.7379 40.1765 70.5499 40.1765 71.5501V77.7329C40.1765 78.7332 40.9791 79.5451 41.9678 79.5451C42.9566 79.5451 43.7591 78.7332 43.7591 77.7329V71.5501C43.7591 70.5481 42.9566 69.7379 41.9678 69.7379Z" fill="#CCF2EE"/>
<path d="M46.5181 52.9644C45.5487 52.9644 44.7619 52.1684 44.7619 51.1877V42.7877C44.7619 31.7706 53.6219 22.8055 64.5137 22.8055C65.4831 22.8055 66.2699 23.6015 66.2699 24.5822C66.2699 25.5629 65.4831 26.3589 64.5137 26.3589C55.5589 26.3589 48.2743 33.7285 48.2743 42.7877V51.1877C48.2743 52.1702 47.4875 52.9644 46.5181 52.9644Z" fill="#5A09AC"/>
</svg>
