<svg width="128" height="128" viewBox="0 0 128 128" fill="none" xmlns="http://www.w3.org/2000/svg">
<path d="M69.0198 106.998L84.0274 98.2812C92.8713 93.144 98.3208 83.6486 98.3208 73.3742V36.1648C98.3208 34.2474 96.834 32.6548 94.9316 32.558C78.8509 31.7341 70.1169 25.1441 66.2178 21.0882C64.8236 19.6373 62.4989 19.6373 61.1048 21.0882C57.2056 25.1459 48.4734 31.7341 32.3909 32.558C30.4869 32.6548 29 34.2491 29 36.1648V73.3724C29 83.6469 34.4478 93.1423 43.2934 98.2795L58.301 106.996C61.6164 108.924 65.7027 108.924 69.0198 106.998Z" fill="#E49542"/>
<path d="M63.6596 101.252C63.0329 101.252 62.4148 101.086 61.8723 100.77L46.8646 92.054C40.2527 88.2141 36.1441 81.0558 36.1441 73.3742V41.0844C36.1441 40.181 36.8103 39.4157 37.7014 39.3017C49.6117 37.7937 57.6211 33.3388 62.5556 29.4229C63.2029 28.9098 64.1146 28.9098 64.7618 29.4229C69.6963 33.3388 77.704 37.7937 89.6143 39.3017C90.5054 39.414 91.1716 40.181 91.1716 41.0844V73.3742C91.1716 81.0558 87.0647 88.2141 80.4511 92.054L65.4435 100.77C64.9043 101.085 64.2862 101.252 63.6596 101.252Z" fill="#FFE07D"/>
<path d="M47.2234 88.1242C45.3348 88.1242 43.4737 88.0067 41.6451 87.7839C43.1337 89.4542 44.8867 90.9035 46.8663 92.0539L61.8739 100.77C62.4165 101.085 63.0346 101.252 63.6613 101.252C64.2879 101.252 64.906 101.086 65.4486 100.77L80.4562 92.0539C87.0681 88.214 91.1767 81.0557 91.1767 73.3741V55.3317C85.4628 74.3069 67.9484 88.1242 47.2234 88.1242Z" fill="#FFD064"/>
<path d="M58.2993 81.3236C56.9275 81.3236 55.5557 80.7967 54.5101 79.7447L43.7896 68.959C41.6967 66.8533 41.6967 63.4383 43.7896 61.3326C45.8825 59.227 49.2769 59.227 51.3698 61.3326L58.2993 68.3043L75.9493 50.5469C78.0423 48.4412 81.4366 48.4412 83.5295 50.5469C85.6225 52.6526 85.6225 56.0676 83.5295 58.1733L62.0903 79.743C61.043 80.7967 59.6712 81.3236 58.2993 81.3236Z" fill="#95D6A4"/>
<path d="M83.5295 50.5453C82.987 49.9994 82.3569 49.5969 81.6838 49.3326C82.4307 51.2656 82.0307 53.5423 80.4786 55.1021L59.0393 76.6753C57.992 77.729 56.6202 78.2541 55.2501 78.2541C53.88 78.2541 52.5064 77.7272 51.4608 76.6753L54.5101 79.7431C55.5574 80.7968 56.9292 81.3219 58.2993 81.3219C59.6694 81.3219 61.043 80.7951 62.0886 79.7431L83.5295 58.1716C85.6242 56.066 85.6242 52.6527 83.5295 50.5453Z" fill="#78C2A4"/>
</svg>
